<svg width="133" height="92" viewBox="0 0 133 92" fill="none" xmlns="http://www.w3.org/2000/svg">
<path d="M0.213069 46.5113C0.983893 45.3721 1.79409 44.8327 2.73996 45.1937C2.95612 45.275 3.03058 46.0946 3.1289 46.2174C3.31084 46.4441 3.46748 45.532 3.50329 45.5278C3.72659 45.4902 3.8082 46.9307 3.84508 46.9822C4.25655 47.5221 3.96311 45.905 4.26914 45.7089C4.66913 45.4527 5.23843 45.6762 5.76351 45.6875C5.94681 45.6955 6.01645 46.7928 6.38945 46.6488C6.65495 46.548 7.32334 45.1916 7.90285 46.4549C7.97856 46.9533 8.01049 47.5112 8.0652 48.0289C8.31853 45.8677 8.52405 45.9308 9.39851 46.3126C9.53573 46.3727 9.51812 45.5017 9.78753 45.7813C10.0576 46.0608 10.2785 47.3734 10.7252 47.2838C10.8824 47.2489 10.8297 46.3066 11.0609 46.227C11.7206 45.9993 13.2388 46.915 13.815 46.8491C14.9544 46.7212 15.2536 45.0323 16.3442 45.3834C16.4279 45.4078 16.462 46.4496 16.6053 46.4416C16.7504 46.4333 16.6287 45.068 16.6566 45.0295C16.9569 44.6119 18.1185 46.2361 18.28 45.9764C18.6738 45.3415 18.0531 44.8589 18.6978 44.4586C19.3172 44.076 20.5975 45.6117 21.3484 45.7982C22.207 46.0179 21.8699 43.4511 23.0588 45.9367C25.0571 45.3102 27.0725 44.7112 29.0707 44.0467C29.2007 44.567 29.3298 45.0877 29.4586 45.6083C29.5247 45.2075 29.5904 44.8061 29.6568 44.409C29.7344 44.8014 29.8132 45.1938 29.8896 45.5823C30.2504 43.8943 30.7209 42.9459 31.702 43.1165C31.7212 43.1196 31.9581 44.1632 31.9795 44.1859C32.2314 44.3262 32.2357 43.472 32.4617 43.6105C33.0085 43.941 34.3515 45.9861 33.2696 43.3279C34.4039 43.6226 35.2986 42.3641 36.3809 42.6234C36.8519 42.7337 37.451 44.3187 37.6748 44.3544C37.8982 44.3894 37.3868 43.0263 37.4397 42.9525C37.7569 42.5227 38.45 42.3781 38.9894 43.9128C38.8864 43.266 38.7855 42.6103 38.6816 41.9595C39.1525 43.7001 40.2136 42.6009 40.558 42.5405C40.6213 42.5295 40.8615 43.282 40.9053 43.2601C41.391 43.005 41.152 41.7829 41.4713 41.253C41.5806 41.0669 41.7574 42.4697 41.9712 41.7736C41.9899 41.7124 41.5987 40.5249 42.0696 40.3857C42.8263 40.1616 44.1035 39.2338 45.1885 39.5293C45.277 39.5514 45.4736 40.9209 45.7128 40.509C45.7998 40.3619 45.4428 39.4603 45.7343 39.3567C46.8463 38.9513 48.4254 39.599 49.2829 38.3338C49.5913 39.3833 49.5685 40.6852 49.9727 39.8247C50.0361 39.6837 49.6483 38.7846 49.6813 38.7351C49.951 38.3458 50.4954 38.8969 50.7587 38.4105C50.8366 38.2645 50.6165 37.5298 50.7001 37.3092C50.8228 36.9815 51.2718 37.9826 51.3664 37.4594C51.5132 36.6364 51.2305 35.6382 52.3768 37.3909C55.0334 36.3298 57.5077 34.8297 60.496 34.6746C60.941 34.0243 61.336 33.3468 61.8382 32.8366C61.9721 32.697 62.1142 32.5702 62.2679 32.4602C62.4761 32.3121 63.0149 33.5914 63.2234 33.0194C63.2736 32.8924 63.3228 31.2776 64.4242 33.8566C64.5024 33.5668 64.6041 33.5184 64.6924 33.3238C64.4347 32.9828 64.1727 32.6385 63.9194 32.2913C64.6806 32.4756 64.8068 31.3637 65.1587 30.7203C65.4192 30.2477 65.5893 31.4739 65.7831 31.2663C65.9798 31.0617 65.9834 30.7689 66.8201 31.9839C66.4328 30.3491 67.0233 31.3671 67.4738 31.2315C67.5226 31.216 67.5456 30.511 67.8176 30.5384C68.0133 30.5583 68.455 31.4967 68.6505 31.2425C68.6837 31.2028 68.735 29.7926 68.8596 29.6138C69.0541 29.332 69.9918 30.3789 70.0506 30.3716C70.8973 30.2693 70.6698 28.9414 72.0523 30.6975C71.6583 29.4716 71.8063 28.5921 72.2141 28.552C72.7272 28.5028 74.688 30.5087 73.7031 27.9152C74.722 28.8162 74.361 28.1432 74.9721 27.8471C75.5271 27.5769 77.4586 27.8747 77.8552 27.5268C78.2526 27.1836 77.3942 25.8805 77.4908 25.6111C77.6461 25.1654 77.9553 26.2735 78.1518 26.1666C78.706 25.8618 79.1166 25.4353 79.4557 24.7335C79.8185 25.4453 80.1854 26.1596 80.5496 26.8707C80.4669 26.616 80.3839 26.361 80.301 26.1063C80.4223 26.0593 80.5478 25.9834 80.6675 25.9548C78.279 23.1975 81.6645 25.7808 82.2492 25.6045C82.7413 25.4552 82.7951 23.5943 83.1433 23.0328C83.2272 22.8955 83.512 23.7149 83.5285 23.6852C83.7171 23.3239 83.5095 22.7706 83.9369 22.6571C84.1641 22.5984 84.842 23.4721 85.0543 23.3936C86.611 22.8124 87.5748 21.1407 88.9972 20.3134C89.2383 20.1728 90.0342 21.2509 90.2599 21.1716C90.581 21.0585 90.2938 19.9963 90.568 19.8422C90.8392 19.6902 91.8232 20.6425 91.9264 20.3707C92.0314 20.1023 91.1482 19.1451 91.65 19.2784C91.8804 19.3397 92.012 20.3142 92.2229 20.241C92.8816 20.0124 93.2361 18.5453 94.4004 19.2091C94.246 18.9754 94.0935 18.7718 93.9382 18.5521C94.687 18.2969 95.6129 18.5785 96.3755 18.2987C96.645 18.2018 96.7324 17.2393 96.9798 17.1168C97.2279 16.9942 97.7445 17.726 97.9568 17.6446C98.0445 17.6131 97.649 16.9227 97.7114 16.9088C98.4908 16.7439 99.5189 17.8054 100.16 17.2914C101.493 16.2235 102.858 15.159 104.218 14.0936C105.251 13.2816 106.273 12.4674 107.265 11.6469C107.358 11.5711 106.916 10.6317 106.99 10.4141C107.105 10.0774 107.565 10.8685 107.612 10.8791C107.91 10.9417 107.413 10.25 107.675 10.101C108.265 9.76567 109.562 9.88012 110.109 9.47844C111.345 8.56727 111.996 7.21176 112.943 6.09335C113.009 6.01054 113.63 7.07011 113.789 6.98285C114.904 6.38028 114.446 5.27839 115.783 4.67897C116.674 4.27291 118.007 3.68393 119.026 3.00851C119.553 2.66199 119.885 2.42017 120.02 2.30847C120.023 2.30999 120.025 2.31152 120.028 2.31304C118.187 0.951196 118.472 1.68629 120.208 1.93746C122.198 2.8844 122.493 4.3777 121.826 5.60954C120.802 7.60189 118.414 8.34411 116.454 9.85407C113.277 12.2967 111.138 17.7633 107.208 19.7046C107.022 19.796 106.831 19.88 106.634 19.9558C106.23 20.1107 105.472 19.0513 105.285 19.4559C105.253 19.5246 105.857 20.3309 105.739 20.5071C104.088 22.9124 100.611 22.1594 98.6582 23.8568C98.1291 24.3155 98.5316 25.3549 98.1285 25.8793C97.9863 25.364 97.8004 24.8439 97.6436 24.3313C94.474 24.0985 92.3624 25.959 89.7745 26.9522C89.6568 26.9954 89.1699 26.0256 89.0347 26.0462C88.7645 26.083 89.0592 27.2662 88.8712 27.4018C88.6257 27.5781 88.2053 26.8223 87.9822 26.992C87.8741 27.0759 88.2677 27.8074 87.9454 27.8056C87.9182 27.8052 87.5282 27.0269 87.4026 27.2114C87.0601 27.7196 86.3933 28.8445 86.0887 29.2289C85.6981 29.721 84.7338 28.725 84.5063 28.7375C83.8913 28.7716 84.4696 29.9834 84.0292 30.189C80.8948 31.6559 77.2605 31.618 74.0371 33.0197C73.8355 33.1074 73.6699 34.8046 73.2666 34.9104C73.1298 34.9425 72.3146 34.8584 72.2018 34.8702C71.7491 34.925 71.053 34.2362 70.7592 34.1532C70.1894 33.9889 70.2448 35.4926 70.0629 35.7198C69.7459 36.1205 68.938 36.2485 68.751 36.2846C68.2979 36.3718 67.7851 34.6963 67.638 35.1944C67.5947 35.3428 68.1864 36.5476 67.8711 36.6737C67.6052 36.7749 67.1262 35.8807 66.8806 35.7829C66.6359 35.686 66.8796 37.2653 66.7529 37.2731C66.0832 37.3019 65.4542 36.451 64.8008 36.6465C64.5761 36.7152 64.0724 37.0274 63.5542 37.3955C62.7963 37.929 62.0103 38.5802 61.9651 38.8273C61.6178 40.7053 62.8911 39.4481 62.9984 39.4664C63.5784 39.5899 63.7315 40.2044 63.7784 38.9033C64.0764 39.4761 64.3064 39.7717 64.4929 39.8892C65.3838 40.4521 65.2426 36.9517 66.861 40.2228C66.1865 37.3437 67.0439 38.5935 67.6653 38.9815C68.524 39.5173 67.4706 38.099 67.8731 37.9264C68.0311 37.8604 68.9938 38.9083 69.1651 38.6394C69.3371 38.3699 69.0569 37.3833 69.3575 37.2007C69.8944 36.8701 70.5318 37.1234 71.4828 38.0528C71.3654 37.5167 71.2416 36.983 71.1222 36.4477C71.6778 36.8462 72.2315 37.241 72.7882 37.6332C72.5527 37.2202 72.3158 36.8034 72.0809 36.3901C72.1515 36.2863 72.2239 36.1859 72.2961 36.0857C72.8933 36.605 73.4579 37.0802 74.0769 37.6152C73.914 34.7191 74.5744 37.005 75.218 37.1159C75.8602 37.2264 75.5252 35.6499 75.9072 35.4751C76.4224 35.2385 76.5812 34.9541 77.1498 34.8283C77.4787 34.7546 78.6071 35.9235 77.2121 33.8983C78.0786 33.3061 79.0874 32.1173 80.3299 32.631C80.6959 32.7794 80.6779 33.6225 80.7591 33.6896C81.1549 34.0019 80.8244 32.7976 81.1144 32.8601C81.5966 32.9649 82.6999 33.517 83.0795 33.5914C83.6266 33.7002 83.6008 31.9525 83.6169 31.8161C83.711 31.0575 84.3665 32.2156 84.446 32.0778C84.8911 31.2841 84.8026 30.7101 86.1993 33.1464C85.8632 31.9681 85.7182 29.7872 86.7624 31.5458C85.9837 29.88 86.7172 29.8769 86.8881 29.2869C87.1844 29.7356 87.4808 30.1807 87.7793 30.6327C87.1407 27.2937 89.6906 28.7227 90.8769 28.5816C90.9059 28.5765 90.3497 27.3145 90.6369 27.5203C90.6576 27.5386 90.9125 28.1033 91.0494 28.1261C91.494 28.1979 93.4608 28.9584 93.6121 28.8986C94.1796 28.6782 93.8211 27.7079 94.1071 27.4588C94.4823 27.1295 94.9566 27.9305 95.3127 27.6056C95.4798 27.4551 95.1116 26.2737 95.4904 26.2779C95.7141 26.279 96.1595 27.1292 96.3379 27.1266C96.9736 27.1201 97.0688 26.395 98.0817 27.2849C96.828 24.4988 98.0543 26.4003 98.3807 26.4932C99.7048 26.8779 100.251 25.1524 101.147 25.0059C103.955 24.5496 106.967 25.1002 109.516 24.223C109.546 24.2129 109.57 24.1961 109.589 24.1738C109.853 23.8792 109.342 22.6645 109.755 22.5444C109.952 22.4891 110.672 23.3616 110.979 23.2136C111.227 23.0969 111.292 22.4188 111.597 22.2554C111.677 22.2118 112.186 23.1195 112.307 23.0621C113.225 22.625 113.73 21.494 114.368 20.5411C114.599 20.1898 115.496 21.2629 114.236 19.2202C114.658 19.6559 115.039 20.0274 115.45 20.4597C115.13 18.8944 116.304 20.0322 116.723 19.3282C116.768 19.2472 116.36 17.5554 117.248 18.4144C116.819 17.6748 116.399 17.0809 116.001 16.4165C116.078 15.9868 116.99 16.582 117.214 16.5608C117.436 16.5403 116.958 15.5286 117.003 15.4871C117.182 15.3399 117.921 16.6007 117.949 16.6116C119.617 17.2047 119.116 16.5992 118.446 14.4174C118.264 13.8776 120.096 14.5721 119.282 13.0273C119.695 13.5999 120.001 14.1435 120.371 14.706C120.756 14.659 121.138 14.6165 121.529 14.5571C121.072 14.0514 120.605 13.5521 120.155 13.0364C121.053 13.1157 120.562 11.4886 121.018 11.2001C121.283 11.034 122.179 12.2329 122.128 11.8566C122.116 11.7829 121.438 11.0304 121.471 10.9001C121.733 9.84334 122.699 10.4277 123.512 9.96282C123.897 9.73794 122.87 8.18099 124.139 8.61597C124.22 8.64536 125.014 8.99085 125.009 8.56776C125.009 8.37907 124.845 8.04844 124.385 7.48763C125.011 7.89478 125.369 8.07503 125.9 8.41054C123.753 5.56132 126.17 8.03201 127.559 7.47002C128.328 7.20731 128.778 4.74334 128.497 4.06089C128.378 3.62313 127.04 3.32832 127.002 3.25652C126.771 2.84706 128.067 3.10836 127.917 2.72779C127.765 2.34246 126.344 1.72597 126.52 1.43174C126.657 1.19972 128.263 1.60084 127.741 1.15672C127.626 1.06607 126.217 1.11548 126.804 0.797994C126.896 0.746479 128.462 0.291185 128.8 0.18772C129.64 0.598085 130.665 1.72102 130.956 2.19C131.696 3.33087 132.302 4.88728 132.083 7.15093C131.863 9.42887 130.819 11.641 129.975 13.1821C125.394 20.9523 118.083 24.4473 113.643 26.3811C113.049 26.6281 112.001 25.5625 111.579 25.6482C111.162 25.7307 112.089 26.7259 111.709 26.8062C111.469 26.8546 111.112 26.6026 110.792 26.4308C110.607 26.3256 110.435 26.249 110.309 26.2819C108.016 26.8802 105.7 27.4354 103.559 28.2506C102.997 28.4667 103.076 29.6273 102.591 29.875C102.402 29.9705 101.771 28.7447 101.645 28.8223C100.269 29.6456 99.5473 31.4942 98.0443 32.062C97.4198 32.296 96.265 31.5717 95.6296 31.7631C95.1005 31.9203 94.9548 32.8761 94.5225 33.1055C94.2899 33.2325 93.7042 32.3498 93.5833 32.3167C93.1664 32.2146 93.8312 33.3175 93.6788 33.3916C93.2561 33.5921 92.3697 32.3009 92.029 32.5998C91.896 32.7177 92.3449 33.5968 92.1869 33.8438C91.9854 34.1557 91.6961 33.2846 91.478 33.3531C91.464 33.3554 91.8098 33.972 91.7137 34.0498C91.0955 34.5529 90.4636 35.4706 89.7671 35.7468C88.3247 36.3229 86.3708 35.7349 84.9543 36.094C84.598 36.1869 85.0695 36.9825 84.9832 37.071C84.565 37.4933 83.9262 36.5756 83.5614 37.176C83.5006 37.2749 83.6718 38.596 83.1981 38.4562C82.9427 38.3811 82.4073 37.7511 82.1753 37.6521C81.9432 37.5532 82.3981 38.6313 82.2101 38.7167C81.8688 38.8742 81.6371 38.0897 81.2064 38.4411C81.0326 38.5806 80.8218 39.8875 80.2757 40.0361C79.3838 40.2798 77.9435 39.8038 76.9505 40.2128C76.6098 40.3505 76.6454 41.6429 76.1207 41.8787C75.4819 42.1679 74.1815 42.4164 73.5087 42.6761C73.1643 42.8095 72.661 41.6548 72.6007 41.623C72.2084 41.4055 72.8473 42.6639 72.6517 42.6841C72.383 42.7113 71.7673 41.8417 71.5238 41.8666C71.3686 41.8824 71.7361 42.8521 71.7089 42.8718C70.7209 43.642 69.6937 43.9461 68.6094 44.4887C67.9457 44.8202 67.2709 45.1624 66.6059 45.5025C61.5489 48.0968 56.5097 50.9316 50.9555 52.2026C50.4321 52.324 50.0061 51.0879 49.6274 51.428C49.2417 51.7661 49.6733 54.5939 48.348 51.7455C48.5291 52.3482 48.6678 52.7747 48.8316 53.3237C47.6398 52.7757 46.9803 53.9485 46.106 54.3403C45.4659 54.6291 44.8216 54.7234 44.1805 54.8479C43.6078 54.9552 43.3419 53.8902 43.2755 55.4053C40.6304 55.2704 38.2583 56.1839 35.4831 55.4035C35.542 57.8174 34.6234 56.5377 33.7521 56.4117C33.6448 56.395 33.9685 57.1936 33.6647 57.1994C33.2837 57.2082 32.7651 55.9946 32.1892 56.2201C32.0351 56.2819 31.2102 57.9911 30.5926 57.3813C29.9771 56.7721 29.229 56.5105 28.6094 55.9322C28.8078 56.4606 29.0181 56.9609 29.2231 57.4793C29.0194 57.6295 28.8139 57.7762 28.6109 57.9256C28.4179 57.2794 28.225 56.6326 28.0328 55.982C28.0557 56.6366 28.0728 57.2843 28.0913 57.9479C26.988 54.6549 27.5502 55.6805 27.1161 56.6849C26.8978 57.1851 26.505 56.6571 26.2599 57.0753C26.172 57.2285 26.3306 58.2378 26.2271 58.3958C25.9745 58.7778 25.8448 57.3681 25.6475 57.4216C25.4508 57.4798 25.5081 59.0475 24.9966 58.461C24.7543 55.6998 23.8903 56.8153 24.301 58.9089C24.1715 58.942 24.0431 58.8799 23.9128 58.9708C22.8714 53.6825 23.0334 57.5636 22.9211 58.3434C22.8111 59.1218 22.5139 57.7047 22.4638 57.7734C22.3182 57.966 22.5759 58.5253 22.4545 58.5723C21.631 58.8742 20.6691 58.1731 19.8184 58.2643C19.6963 58.2774 19.9657 59.0575 19.8097 59.0072C19.6534 58.9566 19.3585 58.1853 19.1644 58.2818C19.1122 58.3069 19.2359 59.0151 19.1499 59.033C17.3282 59.3632 15.5025 59.0796 13.6274 59.3042C13.4587 59.3246 13.5415 60.6067 13.2064 60.6177C12.8682 60.629 12.1864 59.5717 11.7717 59.5472C11.6614 59.5402 11.7985 60.5962 11.652 60.5906C11.1498 60.5713 10.5951 59.7794 10.0745 59.7141C9.19302 59.6047 8.38933 60.3735 7.4356 59.8648C7.25571 59.7705 7.16628 58.887 6.89921 58.6693C6.43962 58.2934 6.75618 59.5578 6.69575 59.7403C6.49519 60.3305 6.20131 58.6333 5.99213 59.105C5.96029 59.1779 6.14236 60.1836 6.10811 60.2039C5.5662 60.4488 5.25745 58.0773 4.81941 59.4193C4.14379 58.1127 4.95643 57.5482 4.95819 56.8124C4.96302 55.0252 4.15557 53.0213 3.75962 52.3919C3.41198 51.8508 3.53714 52.9482 3.42394 52.9613C2.82867 53.0317 1.96448 53.3311 1.46027 52.8523C1.1576 52.5653 1.60477 52.0601 1.43059 51.7122C1.25887 51.3646 1.24826 52.1996 1.02304 51.3096C0.796339 50.4195 0.275078 47.7854 0.213069 46.5113ZM49.6693 41.1061C50.1941 45.5274 47.6783 45.8803 46.2863 45.8893C45.1382 45.8946 43.2156 42.9808 44.8987 47.5501C46.0607 47.2166 46.8114 46.4632 48.0672 46.2101C48.1953 46.1854 49.077 46.3709 49.3623 46.3613C49.5222 46.3553 49.7793 47.1165 49.9762 47.0427C50.0184 47.0244 49.9279 45.9485 50.0246 45.946C50.3593 45.933 51.7512 47.1654 51.8642 47.0779C52.1659 46.8315 51.6335 45.6932 51.7096 45.4281C51.9678 44.5486 52.6292 46.3047 52.9282 45.5591C52.9811 45.426 52.7417 43.7806 53.1744 43.8578C53.3509 43.8911 53.8786 44.6017 53.9794 44.5242C54.5306 44.1033 54.8527 42.8074 55.4744 42.7856C55.9871 42.768 56.2823 44.0015 56.5844 44.0746C56.8856 44.1431 56.6947 42.6584 56.8344 42.5188C57.062 42.2972 57.6593 42.9663 57.7392 42.9249C59.2927 42.1087 60.4096 40.6765 61.8617 39.7692C60.592 39.6243 59.356 39.5129 58.0931 39.3346C57.9344 40.781 57.8179 39.5205 57.2853 39.2791C56.8647 39.0874 57.5356 41.1982 57.0424 41.114C57.0428 41.1139 57.0431 41.1138 57.0435 41.1136C56.7897 41.0672 55.815 39.7874 55.5751 40.5523C55.5672 40.581 55.9095 41.6784 55.5828 41.8364C54.8527 42.1881 53.8706 43.1545 52.9287 43.2181C52.6528 43.2361 52.3123 42.0775 51.9675 42.0379C51.7177 42.0093 51.8242 43.1517 51.3996 43.0325C50.8658 42.8773 50.0489 41.1278 50.606 43.7533C50.278 42.8594 49.994 41.9756 49.6693 41.1061ZM26.4459 50.3252C26.3555 50.2392 24.8337 47.5451 25.8215 50.5755C27.2621 51.648 28.3106 50.6816 29.6633 51.134C28.4851 48.1927 28.1265 49.562 27.3587 49.9891C27.3584 49.9892 27.358 49.9893 27.3577 49.9894C27.3218 50.0093 27.2851 49.1725 27.1022 49.371C27.0141 49.4677 26.9076 50.7899 26.4459 50.3252Z" fill="white"/>
<path d="M28.5896 61.9429C28.1164 61.8152 27.9907 61.7141 27.9327 61.6035C27.8804 61.4948 27.8647 61.393 27.8712 61.2989C27.8886 61.1101 27.9395 60.9596 28.0355 60.8499C28.1888 60.6364 28.4573 60.5956 28.737 60.7841C28.873 60.8678 28.9997 61.6808 29.0733 61.8034C29.2175 62.0284 29.212 61.1286 29.2336 61.1248C29.3627 61.0912 29.5567 62.5192 29.5838 62.5709C29.89 63.1113 29.5492 61.5055 29.7285 61.3141C29.9509 61.0663 30.326 61.2976 30.6742 61.3167C30.7874 61.329 30.9323 62.4171 31.1548 62.2828C31.3117 62.1889 31.6323 60.8594 32.1081 62.1287C32.2015 62.6241 32.2722 63.177 32.3541 63.6909C32.3134 61.5616 32.4928 61.622 33.0621 62.0362C33.1551 62.1008 33.0692 61.2386 33.2686 61.5253C33.4689 61.8119 33.7201 63.1187 34.0091 63.0475C34.1145 63.0184 33.9899 62.0869 34.1336 62.0186C34.5357 61.8232 35.605 62.8047 35.963 62.7766C36.7053 62.7153 36.7572 61.0737 37.5048 61.4948C37.5619 61.5247 37.6506 62.5552 37.745 62.5573C37.8402 62.5593 37.6747 61.2034 37.6911 61.1673C37.8642 60.7762 38.7033 62.4716 38.7969 62.2281C39.0164 61.6341 38.5797 61.1082 38.9822 60.7659C39.3751 60.4381 40.2752 62.0684 40.7765 62.3226C41.3574 62.6183 40.9996 60.0623 41.8905 62.6278C43.1627 62.2142 44.4522 61.8573 45.6997 61.4658C45.802 61.9922 45.9038 62.519 46.0054 63.0455C46.0347 62.6611 46.0642 62.276 46.095 61.8954C46.1583 62.2899 46.2226 62.6845 46.2852 63.075C46.4717 61.466 46.7344 60.6022 47.3774 60.9037C47.3899 60.9093 47.5735 61.9631 47.588 61.9882C47.7545 62.1602 47.733 61.3254 47.8834 61.4924C48.2454 61.8922 49.1757 64.0822 48.4031 61.3296C49.1487 61.7789 49.6786 60.6872 50.399 61.1038C50.7105 61.283 51.1245 62.9231 51.2657 62.9938C51.4069 63.0636 51.0542 61.6537 51.0863 61.5901C51.2813 61.221 51.7261 61.1911 52.0981 62.7737C52.021 62.1269 51.9454 61.4718 51.8683 60.8209C52.1959 62.593 52.8735 61.6939 53.096 61.6932C53.1361 61.6932 53.3002 62.4658 53.3276 62.4519C53.6312 62.2863 53.462 61.0573 53.6591 60.5968C53.7283 60.4343 53.8556 61.8292 53.9878 61.1885C53.9993 61.1322 53.7352 59.9099 54.0406 59.8553C54.5343 59.7661 55.352 59.0912 56.0507 59.5768C56.1076 59.6145 56.2396 60.9791 56.3913 60.6234C56.4468 60.4966 56.2133 59.5565 56.4019 59.5093C57.1421 59.3152 58.1309 60.2468 58.6972 59.1861C58.8918 60.2619 58.8729 61.518 59.1364 60.7631C59.1779 60.6389 58.9314 59.6932 58.953 59.6517C59.13 59.3269 59.4758 59.9672 59.6555 59.5469C59.709 59.4205 59.5693 58.6667 59.6243 58.4699C59.7045 58.1774 59.9868 59.2349 60.0499 58.748C60.1481 57.9821 59.975 56.96 60.6968 58.8853C62.436 58.3915 64.0586 57.4678 65.9705 57.9815C66.3533 57.3078 66.6996 56.5721 67.1723 56.246C67.3121 56.1507 67.6266 57.502 67.7771 57.0008C67.8111 56.8906 67.897 55.3512 68.5319 58.082C68.5917 57.8223 68.6594 57.7996 68.7231 57.6338C68.5668 57.2463 68.4073 56.8548 68.2533 56.4627C68.7431 56.8171 68.8661 55.7814 69.1251 55.2486C69.3164 54.8582 69.3783 56.0735 69.5143 55.9214C69.6525 55.7727 69.6643 55.4938 70.1592 56.8608C69.9709 55.203 70.3141 56.3211 70.6098 56.304C70.6415 56.3015 70.6865 55.6337 70.8624 55.7279C70.9889 55.796 71.2348 56.8027 71.3727 56.6095C71.3956 56.58 71.4925 55.2477 71.5841 55.1088C71.7257 54.8892 72.2878 56.1275 72.3263 56.1359C72.8808 56.2574 72.7949 54.9356 73.5989 56.9708C73.405 55.7011 73.5463 54.9041 73.8132 54.975C74.1495 55.0644 75.3082 57.4988 74.8173 54.7707C75.4294 55.9022 75.2327 55.1654 75.641 55.0538C76.0114 54.9504 77.2369 55.7732 77.5159 55.5574C77.7945 55.3455 77.3228 53.8705 77.403 53.6431C77.5335 53.2657 77.6613 54.4009 77.7962 54.3557C78.1817 54.224 78.4606 53.9424 78.7269 53.3784C78.9132 54.1549 79.1018 54.935 79.2888 55.7113C79.2524 55.4471 79.2158 55.1826 79.1794 54.9183C79.2602 54.9093 79.3457 54.8743 79.4242 54.8823C78.0736 51.5874 80.0762 55.0082 80.4653 55.0158C80.6879 55.019 80.8387 54.2106 80.9979 53.5622L80.7033 53.6324C80.7615 53.3284 80.8219 53.0591 80.8979 52.9212C80.9557 52.8145 81.1212 53.663 81.1326 53.6395C81.2637 53.3502 81.142 52.7731 81.4201 52.7825C81.5673 52.7892 81.9845 53.7958 82.1213 53.7803C83.145 53.6561 83.803 52.3504 84.7182 51.9719C84.8778 51.9061 85.3795 53.1346 85.5262 53.1227C85.7359 53.1052 85.5643 52.0315 85.7419 51.9635C85.9178 51.8965 86.5366 53.0611 86.6107 52.8342C86.6828 52.6118 86.1208 51.4728 86.4453 51.7357C86.5943 51.8566 86.6675 52.8048 86.8057 52.7943C87.2386 52.7612 87.4711 51.4911 88.2218 52.4325C88.1233 52.1715 88.026 51.9393 87.9269 51.6911C88.4088 51.6611 89.0049 52.1805 89.5025 52.129C89.6778 52.1129 89.7207 51.244 89.8874 51.196C90.0498 51.1496 90.3879 51.9731 90.5237 51.9562C90.58 51.9511 90.3207 51.1994 90.3606 51.2038C90.8547 51.268 91.5382 52.5351 91.9488 52.2325C93.4489 51.126 94.9977 50.0487 96.4002 48.9303C96.4569 48.8855 96.1223 47.9045 96.1564 47.7265C96.208 47.4513 96.5514 48.2996 96.5821 48.3222C96.7805 48.46 96.4179 47.6926 96.5825 47.6266C96.9397 47.4838 97.7997 47.9389 98.1269 47.726C98.8724 47.2396 99.1785 46.2055 99.6652 45.4991C99.699 45.4455 100.226 46.5528 100.321 46.5222C100.995 46.3124 100.55 45.222 101.362 45.1189C101.912 45.0453 102.772 44.9631 103.473 44.7596L103.353 44.8619C103.787 44.6717 104.185 44.4681 104.489 44.2633C104.491 44.2654 104.493 44.2675 104.495 44.2696C103.217 42.3654 103.902 42.4947 105.372 43.4588C106.227 45.554 106.24 46.8469 105.844 47.7125L105.896 47.6678C105.306 49.0023 103.642 48.9871 102.422 49.7923C100.394 51.142 99.147 56.0118 96.2607 56.4424C95.9904 56.4819 95.4634 55.2984 95.3481 55.6242C95.328 55.6796 95.744 56.5883 95.6684 56.7212C94.5894 58.5272 92.2636 56.8914 90.9696 57.9432C90.6124 58.229 90.8705 59.3096 90.5995 59.69C90.5113 59.1692 90.3942 58.6321 90.2958 58.1102C88.2153 57.0257 86.812 58.1854 85.104 58.4123C85.0258 58.421 84.731 57.3768 84.644 57.3588C84.4699 57.3189 84.6376 58.5106 84.5129 58.5867C84.35 58.6854 84.0931 57.8605 83.9442 57.9594C83.8717 58.0089 84.1126 58.8033 83.9005 58.7147C83.8826 58.707 83.6464 57.8692 83.5588 58.0091C83.3243 58.394 82.8759 59.2693 82.6636 59.5506C82.555 59.6964 82.3894 59.5851 82.2212 59.3985L82.2444 59.3929C82.0132 59.1093 81.7846 58.6653 81.6973 58.6323C81.3001 58.4821 81.588 59.7936 81.2935 59.857C79.2112 60.3099 76.9054 59.2386 74.757 59.7064C74.6227 59.7356 74.4372 61.303 74.1784 61.2965C74.0901 61.2905 73.5787 60.9951 73.5058 60.9772C73.2117 60.9116 72.7941 60.0763 72.6079 59.9219C72.2462 59.6194 72.2212 61.0671 72.0963 61.2378C71.8772 61.5395 71.3611 61.4589 71.2412 61.447C70.9511 61.4175 70.6806 59.6905 70.5701 60.1301C70.5372 60.2614 70.8762 61.5577 70.6682 61.6016C70.4935 61.6337 70.2155 60.6623 70.0598 60.5097C69.9043 60.3581 70.0092 61.9289 69.9278 61.9061C69.4993 61.7737 69.1198 60.8099 68.6951 60.8457C68.3513 60.8771 66.8881 61.9144 66.8327 62.3009C66.5749 64.0306 67.4139 63.1029 67.4826 63.145C67.8517 63.393 67.9366 64.0182 67.9937 62.7782C69.0353 66.3467 68.7676 60.5059 69.9167 64.7565C69.562 61.8389 70.0752 63.2393 70.4602 63.76C70.9926 64.4795 70.3629 62.8684 70.6268 62.8005C70.73 62.7755 71.3147 64.0115 71.4276 63.7981C71.5438 63.5836 71.3984 62.5719 71.5945 62.4729C71.9441 62.2921 72.3428 62.6944 72.9103 63.8232C72.8563 63.2824 72.7984 62.7421 72.7436 62.2015C73.0814 62.7237 73.42 63.242 73.7584 63.7599C73.6258 63.3057 73.4922 62.8474 73.3596 62.3932C73.4094 62.3125 73.4603 62.2357 73.511 62.159C73.8726 62.808 74.208 63.4087 74.5747 64.0813C74.5939 61.2871 74.9139 63.6342 75.3138 63.9123C75.7142 64.1898 75.5764 62.6037 75.8286 62.5415C76.1685 62.457 76.2853 62.2306 76.6563 62.2673C76.8712 62.2876 77.5193 63.7087 76.7436 61.4039C77.318 61.084 78.0275 60.2439 78.7916 61.0832C79.0165 61.3277 78.9545 62.1188 79.0024 62.2053C79.2359 62.6132 79.0973 61.3816 79.2792 61.5235C79.5851 61.7594 80.2439 62.6009 80.4784 62.782C80.8153 63.0442 80.9066 61.391 80.9257 61.2674C81.0333 60.5808 81.3755 61.8641 81.4347 61.7579C81.7693 61.1421 81.7521 60.5761 82.4778 63.2827C82.3757 62.3814 82.3837 60.9864 82.6205 61.1525L82.6793 61.1385C82.7632 61.191 82.8816 61.4229 83.0434 61.9149C82.578 60.136 83.0586 60.3297 83.1832 59.8207C83.3652 60.3231 83.5474 60.8222 83.7308 61.3285C83.3785 58.0169 85.0205 60.0496 85.7907 60.2428C85.81 60.2459 85.4741 58.9089 85.658 59.1802C85.6712 59.203 85.8257 59.8029 85.9152 59.8615C86.2121 60.0478 87.4605 61.3051 87.5747 61.2866C87.9556 61.2336 87.7369 60.2262 87.9286 60.0709C88.181 59.8647 88.4705 60.7474 88.7141 60.5391C88.8285 60.4432 88.6073 59.2353 88.8573 59.3424C89.0049 59.4045 89.2852 60.3223 89.4016 60.3689C89.8151 60.538 89.8897 59.8847 90.5508 60.9924C89.76 58.0431 90.544 60.1572 90.7588 60.333C91.6235 61.0552 92.0125 59.5873 92.6101 59.6918C94.4816 60.0235 96.5255 61.3334 98.2936 61.1552C98.5773 61.1269 98.1227 59.6618 98.431 59.653C98.5693 59.6505 99.0777 60.6463 99.2846 60.5872C99.4473 60.5442 99.4942 59.9248 99.6968 59.8524C99.7507 59.832 100.123 60.8035 100.207 60.7807C100.835 60.6067 101.171 59.6815 101.587 58.9625C101.733 58.6983 102.412 59.909 101.451 57.7101C101.763 58.218 102.045 58.6559 102.352 59.1568C102.07 57.6343 102.949 58.973 103.217 58.4316C103.243 58.37 102.887 56.713 103.558 57.7225C103.216 56.9389 102.888 56.2907 102.573 55.5837C102.603 55.2111 103.28 55.9855 103.443 56.0204C103.604 56.056 103.203 55.0167 103.232 54.991C103.348 54.9044 103.95 56.2348 103.971 56.2519C105.218 57.2021 104.822 56.5272 104.199 54.3882C104.029 53.8567 105.41 54.9418 104.703 53.3554C105.046 53.9714 105.31 54.5347 105.622 55.1315C105.898 55.1877 106.19 55.2384 106.471 55.2871C106.094 54.722 105.712 54.1593 105.341 53.5856C106.012 53.8825 105.511 52.3226 105.822 52.191C106.002 52.1174 106.781 53.3953 106.71 53.0537C106.695 52.9864 106.119 52.1539 106.132 52.0492C106.225 51.2074 107.014 51.9641 107.595 51.7951C107.878 51.7076 106.935 50.1183 107.964 50.8463C108.035 50.9007 108.823 51.508 108.615 50.9321L108.639 50.912C108.567 50.7351 108.394 50.4456 108.064 49.9924C108.603 50.501 108.906 50.7505 109.357 51.1808C107.386 48.2866 109.547 50.9215 110.553 51.0966C111.076 51.1895 111.448 50.0033 111.431 49.5C111.421 49.1954 110.466 48.2201 110.453 48.1561C110.385 47.7829 111.311 48.7286 111.3 48.4343C111.29 48.1393 110.412 46.9019 110.65 46.8587C110.834 46.8254 111.907 48.076 111.665 47.5094C111.611 47.3883 110.531 46.4954 111.086 46.7138C111.173 46.7475 112.51 47.5438 112.797 47.7193C113.274 48.4796 113.664 49.7041 113.752 50.1168C114.215 52.1809 113.941 54.2263 113.158 56.0846L113.011 56.2093C109.859 61.6087 104.269 63.6078 101.202 64.2019C100.774 64.2889 100.037 63.0298 99.7426 63.0041C99.448 62.978 100.111 64.1371 99.8416 64.1186C99.5671 64.0975 99.1003 63.2785 98.8609 63.2777C97.2527 63.2649 95.662 63.1784 94.2043 63.3715C93.8304 63.4217 93.8474 64.5361 93.5288 64.6343C93.4023 64.6726 92.9933 63.356 92.9075 63.3949C91.9624 63.7987 91.4516 65.3345 90.4411 65.4595C90.01 65.5129 89.2731 64.5158 88.8464 64.5235C88.4942 64.527 88.3683 65.3872 88.085 65.4833C87.9303 65.539 87.5653 64.5506 87.486 64.4868C87.2132 64.2779 87.6254 65.4946 87.5225 65.523C87.2378 65.5973 86.6788 64.145 86.4556 64.3315C86.3666 64.406 86.6401 65.3543 86.5314 65.5434C86.3925 65.7818 86.2235 64.8843 86.0793 64.8896C86.0701 64.888 86.2818 65.5616 86.217 65.6087C85.7958 65.9154 85.3628 66.6075 84.9017 66.6799C84.6584 66.7191 84.393 66.6791 84.1163 66.5974L83.8006 66.6726C83.0224 66.3915 82.1853 65.7463 81.5081 65.6879C81.2792 65.6707 81.5283 66.5581 81.4692 66.6161C81.1838 66.8911 80.8391 65.8396 80.5765 66.2996C80.5318 66.3753 80.5625 67.6709 80.2722 67.4028C80.1155 67.2586 79.8135 66.5107 79.6726 66.351C79.5317 66.1914 79.7588 67.3391 79.6361 67.366C79.4136 67.4175 79.3096 66.6107 79.0211 66.8204C78.9045 66.9029 78.7073 68.0779 78.3619 68.065C77.8027 68.0436 76.9037 67.1993 76.2666 67.3179C76.0464 67.3563 76.0155 68.5916 75.6816 68.6747C75.2805 68.776 74.4455 68.6733 74.0182 68.7471C73.7988 68.7852 73.523 67.5565 73.4863 67.5107C73.2479 67.2031 73.6056 68.5653 73.4829 68.5345C73.3144 68.4918 72.9579 67.5064 72.8058 67.4685C72.7087 67.4442 72.9088 68.4616 72.8914 68.4735C72.2658 68.9559 71.5964 68.998 70.917 69.2564C67.2489 70.6385 63.7009 72.7394 59.7876 72.9352C59.456 72.9544 59.1794 71.6768 58.9403 71.9362C58.7009 72.1916 59.0023 75.0121 58.1443 72.0058C58.2641 72.6235 58.3554 73.0627 58.4638 73.6251C57.7191 72.873 57.3145 73.8938 56.7724 74.1206C56.3711 74.2895 55.9841 74.2666 55.591 74.2772C55.2296 74.2853 55.0398 73.2052 55.0277 74.6681C53.3765 74.0925 51.9408 74.6078 50.1707 73.4483C50.2925 75.8145 49.6743 74.4334 49.1387 74.1878C49.0703 74.1569 49.3037 74.982 49.1123 74.9467C48.8729 74.9039 48.4993 73.6468 48.1458 73.7918C48.0495 73.8318 47.6291 75.3939 47.2139 74.7204C46.795 74.0478 46.3198 73.6989 45.9051 73.0582C46.0544 73.5999 46.2094 74.1157 46.3619 74.6486C46.2428 74.7712 46.1231 74.8903 46.0056 75.0126C45.8535 74.3561 45.7014 73.6991 45.5493 73.0385C45.5962 73.6831 45.6416 74.3199 45.6896 74.9725C44.8376 71.6143 45.2458 72.6836 45.019 73.6214C44.9061 74.0881 44.6315 73.5264 44.4998 73.9104C44.4529 74.0513 44.6059 75.0597 44.5521 75.2033C44.4198 75.5503 44.2588 74.1525 44.1411 74.1835C44.0236 74.2193 44.1523 75.7641 43.8071 75.1336C43.4996 72.3951 43.0115 73.4053 43.3941 75.5043C43.3159 75.5239 43.2326 75.45 43.1576 75.5263C42.1903 70.2249 42.5244 74.0568 42.5078 74.8124C42.4908 75.567 42.217 74.1453 42.1907 74.2081C42.1142 74.3836 42.3085 74.958 42.2375 74.9927C41.7548 75.2113 41.0893 74.4413 40.5875 74.4574C40.515 74.46 40.7346 75.2506 40.6372 75.1879C40.5416 75.1244 40.3011 74.3415 40.1845 74.4219C40.1531 74.4426 40.2802 75.15 40.2272 75.161C39.1218 75.344 37.998 74.938 36.8411 75.0643C36.7398 75.0754 36.9001 76.3457 36.7022 76.3384C36.5053 76.3306 35.9732 75.2577 35.7185 75.215C35.6499 75.2033 35.8294 76.2526 35.7398 76.2408C35.4433 76.1978 35.018 75.3957 34.6881 75.3135C34.1511 75.1715 33.6992 75.9147 33.0814 75.3869C32.9566 75.2906 32.8154 74.414 32.6252 74.1939C32.3002 73.8135 32.6219 75.071 32.602 75.2508C32.5359 75.8315 32.1936 74.1448 32.1111 74.6086C32.0969 74.6806 32.3105 75.679 32.2899 75.6989C31.9602 75.9367 31.5403 73.5824 31.4072 74.9062C30.838 73.6079 31.3153 73.0521 31.2336 72.3252C31.0528 70.5559 30.393 68.5541 30.0587 67.9311C29.7888 67.3916 29.9743 68.4805 29.9071 68.4921C29.5625 68.5537 29.0296 68.8482 28.7457 68.3539C28.5665 68.0589 28.7667 67.5704 28.6462 67.2196C28.5312 66.869 28.5832 67.6985 28.4548 66.7999C28.3965 66.3503 28.2891 65.4593 28.3631 64.5131C28.4128 63.5667 28.7139 62.5797 28.5896 61.9429ZM58.9372 61.9452C59.267 66.3252 57.6688 66.1912 56.7906 65.9481C56.0704 65.7426 54.8023 62.5772 55.9246 67.3119C56.6711 67.1911 57.1213 66.6002 57.9217 66.5871C58.0041 66.5866 58.5719 66.93 58.7556 66.9744C58.8573 66.9988 59.0217 67.7852 59.1442 67.7516C59.1703 67.742 59.1071 66.6833 59.1677 66.6996C59.3736 66.7519 60.2634 68.213 60.3335 68.151C60.5247 67.9713 60.187 66.766 60.2356 66.5244C60.4018 65.7237 60.8183 67.5528 61.0124 66.8905C61.0472 66.772 60.9044 65.1324 61.1757 65.2943C61.287 65.362 61.6182 66.1549 61.6818 66.1005C62.0285 65.8059 62.2409 64.6201 62.6425 64.726C62.9721 64.814 63.1495 66.0658 63.3423 66.1987C63.5347 66.3269 63.4275 64.8546 63.5142 64.7499C63.656 64.5848 64.0321 65.3551 64.0825 65.3322C65.0692 64.8748 65.825 63.7323 66.7488 63.1842C65.9495 62.7625 65.158 62.3874 64.3488 61.9468C64.2288 63.3068 64.1708 62.0672 63.8333 61.7216C63.5666 61.4477 63.9705 63.6245 63.6576 63.4393C63.6578 63.4393 63.658 63.4392 63.6582 63.4392C63.4948 63.3415 62.8957 61.9007 62.7311 62.5901C62.7256 62.6162 62.9336 63.7462 62.7217 63.8316C62.2448 64.0216 61.6149 64.7547 61.0218 64.6268C60.8467 64.5891 60.637 63.4004 60.4137 63.2944C60.2502 63.2181 60.3133 64.3443 60.0423 64.1458C59.7015 63.8911 59.1804 62.0396 59.5334 64.689C59.3246 63.7602 59.144 62.8497 58.9372 61.9452ZM44.2774 67.3049C44.2213 67.2087 43.1223 64.3938 43.8981 67.4791C44.8501 68.6955 45.4772 67.8709 46.3573 68.4837C45.5011 65.4512 45.3041 66.7539 44.8399 67.0814C44.8397 67.0815 44.8395 67.0815 44.8393 67.0816C44.8172 67.0969 44.7566 66.2716 44.6488 66.4449C44.5967 66.5294 44.59 67.8141 44.2774 67.3049Z" fill="white"/>
<path d="M75.4538 81.0803C74.8248 80.2038 74.6799 79.7048 75.2157 79.832C75.3372 79.8606 75.9029 80.4583 76.0143 80.5358C76.219 80.68 75.6701 79.9768 75.6802 79.9673C75.7289 79.9057 76.6941 80.9753 76.7395 81.0087C77.2194 81.3602 76.0754 80.1839 76.0519 79.9907C76.0233 79.737 76.3666 79.8219 76.559 79.7604C76.6291 79.742 77.3289 80.5862 77.3696 80.4288C77.3917 80.3237 76.827 79.1652 77.7766 80.114C78.0962 80.5038 78.4362 80.9447 78.7612 81.351C77.5682 79.6128 77.6969 79.6269 78.2137 79.8731C78.2958 79.9115 77.7976 79.2055 78.0501 79.4134C78.3017 79.6225 79.1108 80.6785 79.2052 80.5873C79.2367 80.5526 78.7005 79.7818 78.736 79.7054C78.8441 79.4791 79.8303 80.2085 79.9755 80.158C80.2675 80.0549 79.5207 78.6285 80.0511 78.9467C80.0901 78.9695 80.614 79.8554 80.6556 79.8525C80.6968 79.8498 79.9894 78.6847 79.9803 78.6522C79.8759 78.3019 81.0327 79.7293 80.955 79.5174C80.7759 78.9917 80.3484 78.5509 80.3668 78.2352C80.3862 77.9336 81.5115 79.3248 81.8224 79.5427C82.1822 79.7967 80.9239 77.5474 82.4078 79.7952C82.4326 79.7668 82.4578 79.7385 82.4833 79.7105C82.7883 79.3729 83.113 79.084 83.4186 78.7706C83.6765 79.2408 83.9344 79.7112 84.1922 80.1814C84.0433 79.8397 83.895 79.4972 83.7495 79.1584C83.937 79.5108 84.125 79.8634 84.3108 80.2122C83.7129 78.7833 83.4683 78.0116 83.8407 78.2915C83.8478 78.2968 84.3466 79.2425 84.3625 79.2653C84.4959 79.4225 84.1488 78.6752 84.2744 78.8275C84.5777 79.191 85.8073 81.1775 84.4064 78.6932C84.8714 79.1123 84.6437 78.1426 85.0798 78.5381C85.2676 78.7085 86.07 80.1959 86.1511 80.2636C86.232 80.3305 85.5449 79.0512 85.5323 78.9948C85.4627 78.6675 85.6201 78.6537 86.3768 80.092C86.0954 79.5068 85.8118 78.9138 85.5296 78.3245C86.3446 79.9314 86.2434 79.1465 86.3281 79.153C86.3434 79.1543 86.7028 79.8576 86.7078 79.846C86.7589 79.7066 86.2223 78.5907 86.1216 78.1807C86.0859 78.0361 86.6667 79.302 86.4718 78.7273C86.4547 78.6769 85.8886 77.5618 85.9845 77.5227C86.1342 77.4609 86.1953 76.8765 86.6427 77.3441C86.6783 77.3805 87.2372 78.6247 87.1616 78.3078C87.1351 78.195 86.6968 77.3319 86.7503 77.2967C86.9556 77.151 87.6749 78.0389 87.4999 77.0984C87.9645 78.0877 88.4169 79.2304 88.2386 78.5555C88.2087 78.4444 87.7724 77.5711 87.7653 77.5343C87.7135 77.2463 88.0751 77.8462 87.9896 77.4717C87.9633 77.3591 87.6394 76.6645 87.5896 76.4872C87.5154 76.2234 88.0025 77.2019 87.8519 76.76C87.6144 76.0648 87.1858 75.1216 88.1466 76.915C88.6189 76.5497 88.9177 75.7827 89.818 76.3602C89.7345 75.7612 89.6142 75.1045 89.6885 74.8292C89.7109 74.7488 90.2793 76.0141 90.17 75.5602C90.1457 75.4607 89.672 74.0428 90.8127 76.6033C90.7493 76.3671 90.7673 76.3503 90.7366 76.201C90.5502 75.8334 90.361 75.4622 90.1734 75.0909C90.476 75.4472 90.1817 74.4977 90.1075 74.02C90.0535 73.6702 90.4718 74.7988 90.4738 74.6664C90.4771 74.5376 90.3938 74.279 91.0233 75.5755C90.417 74.0283 90.909 75.0848 91.0156 75.0875C91.0267 75.0871 90.8302 74.4707 90.9276 74.5691C90.9977 74.64 91.412 75.5894 91.4023 75.4192C91.4011 75.3934 91.0144 74.1636 91.0058 74.0402C90.9909 73.8452 91.5942 75.0321 91.6108 75.0427C91.8568 75.1931 91.417 73.9563 92.3533 75.9038C91.8852 74.7099 91.6936 73.977 91.8176 74.0609C91.976 74.1658 93.1534 76.5173 92.1377 73.9395C92.7129 75.0379 92.4141 74.3372 92.5378 74.2611C92.5461 74.2558 92.5579 74.2557 92.5724 74.2599C92.7542 74.3117 93.3626 75.0347 93.3999 74.8681C93.4422 74.6912 92.8323 73.2753 92.7965 73.0684C92.7364 72.7247 93.1158 73.797 93.1536 73.7649C93.2595 73.6716 93.2884 73.4274 93.2291 72.9186C93.5224 73.6611 93.8175 74.4071 94.1107 75.1496C94.0211 74.899 93.9314 74.6482 93.842 74.3976C93.87 74.3954 93.8922 74.3693 93.9242 74.383C92.4699 71.1878 94.2105 74.5507 94.353 74.5919C94.4749 74.6233 94.0529 73.0064 94.0375 72.629C94.0332 72.5364 94.3166 73.3513 94.315 73.3307C94.2923 73.0766 94.0968 72.5208 94.2111 72.5644C94.2722 72.5891 94.6932 73.5851 94.7438 73.5882C95.1136 73.6065 95.054 72.4737 95.3382 72.2482C95.3865 72.2096 95.8749 73.4354 95.9295 73.4463C96.0077 73.4614 95.6891 72.4289 95.7454 72.3914C95.8019 72.3544 96.317 73.541 96.2926 73.3404C96.2699 73.1432 95.7861 71.9879 95.9754 72.2848C96.0622 72.4214 96.308 73.3218 96.3601 73.3336C96.5216 73.3711 96.3348 72.2155 96.8406 73.2227C96.7438 72.9617 96.6538 72.7279 96.5595 72.4789C96.7475 72.5294 97.0977 73.1174 97.2841 73.1563C97.3499 73.172 97.1865 72.3644 97.2418 72.3498C97.297 72.3355 97.604 73.168 97.6545 73.1769C97.6759 73.1825 97.4162 72.4313 97.4332 72.4426C97.6488 72.5917 98.1766 73.9072 98.2786 73.7035C98.6546 72.9585 99.0798 72.2866 99.4912 71.5978C99.5078 71.5704 99.2107 70.5783 99.1984 70.4216C99.179 70.179 99.4574 71.0509 99.4741 71.0795C99.5799 71.2573 99.3063 70.4553 99.3673 70.436C99.5017 70.3936 99.9417 71.0422 100.055 70.9393C100.316 70.7016 100.334 69.8513 100.514 69.3697C100.526 69.3323 100.871 70.5085 100.913 70.5125C101.213 70.5553 100.925 69.4158 101.348 69.6327C101.771 69.8496 102.595 70.376 103.019 70.4255C103.02 70.4282 103.021 70.4309 103.022 70.4337C102.487 68.2278 102.803 68.7214 103.422 70.3247C104.301 75.8973 102.89 73.7244 102.169 74.1775C101.406 74.6519 101.754 78.7987 100.778 78.5342C100.685 78.5091 100.256 77.2915 100.274 77.5697C100.277 77.6167 100.613 78.5535 100.611 78.6603C100.575 80.0972 99.3734 78.1071 99.1199 78.8578C99.0528 79.0596 99.3925 80.1157 99.3803 80.4226C99.2287 79.9205 99.0632 79.3978 98.9084 78.8926C97.8869 77.5116 97.6281 78.3762 97.0543 78.3351C97.0276 78.3316 96.6552 77.3125 96.6176 77.2832C96.5409 77.2212 96.9033 78.3596 96.8764 78.4127C96.8408 78.4815 96.5352 77.674 96.5046 77.7454C96.4902 77.7814 96.7829 78.5578 96.6819 78.4449C96.6734 78.4351 96.3704 77.6191 96.3739 77.7374C96.3842 78.0644 96.4425 78.8216 96.4408 79.0548C96.4385 79.3527 95.8969 78.1555 95.8279 78.0904C95.6426 77.9147 96.1198 79.1697 96.0337 79.2029C95.6044 79.372 94.9146 78.8359 94.3143 78.5983C94.0595 78.4969 93.822 78.4492 93.6333 78.5306C93.5927 78.5479 94.0166 79.9901 93.922 79.9646C93.8885 79.9523 93.6093 79.6409 93.5774 79.6188C93.4519 79.5358 93.0344 78.731 92.9172 78.5747C92.6884 78.2687 93.1445 79.6082 93.1551 79.757C93.1736 80.0206 92.9608 79.9098 92.9132 79.8907C92.7984 79.8435 92.1357 78.2282 92.2381 78.6276C92.269 78.7468 92.8159 79.9684 92.7562 79.9941C92.7044 80.0115 92.2842 79.0951 92.1773 78.9437C92.0706 78.7933 92.628 80.2505 92.5916 80.2237C92.3941 80.0721 91.9351 79.1581 91.7913 79.1639C91.6725 79.1718 91.4943 80.0329 91.6072 80.3849C92.1076 81.9577 92.0905 81.159 92.1295 81.2023C92.3461 81.4546 92.588 82.0356 92.1866 80.899C93.7627 84.2543 91.7045 78.855 93.5387 82.8511C92.4359 80.1376 93.089 81.4632 93.3969 81.9714C93.8234 82.6736 93.0663 81.142 93.1373 81.0981C93.1664 81.0821 93.7792 82.2662 93.7498 82.0769C93.7205 81.8872 93.3372 80.9418 93.3755 80.8641C93.4419 80.7217 93.7167 81.1221 94.2818 82.2096C94.0874 81.7052 93.8922 81.2008 93.6983 80.6962C93.987 81.2047 94.2732 81.7105 94.5576 82.2166C94.3653 81.7855 94.1711 81.3508 93.9784 80.92C93.9701 80.8491 93.9635 80.7818 93.9569 80.7146C94.2921 81.3437 94.6027 81.9261 94.9457 82.5783C94.0656 79.9882 94.9241 82.1898 95.1507 82.4802C95.3773 82.7702 94.8307 81.2865 94.9004 81.2488C94.9934 81.1978 94.9642 80.9967 95.1053 81.0614C95.1869 81.098 95.8533 82.4734 94.8708 80.2648C94.8891 80.222 94.9043 80.1656 94.9194 80.1056C94.9934 79.8117 95.0699 79.4298 95.5024 80.1343C95.6546 80.3818 95.8692 81.1149 95.912 81.1997C96.1153 81.6007 95.6988 80.4392 95.805 80.5874C95.9816 80.8344 96.4627 81.6778 96.597 81.8683C96.7907 82.1436 96.3392 80.6056 96.3108 80.4912C96.1498 79.858 96.6419 81.09 96.6315 80.996C96.5698 80.4499 96.4034 79.9173 97.4319 82.5202C97.0354 81.3766 96.4611 79.4174 97.209 81.3116C96.5648 79.5893 96.7905 79.8359 96.7028 79.378C96.9017 79.8721 97.0994 80.3631 97.2991 80.8612C96.3058 77.7195 97.4403 79.8496 97.7663 80.1481C97.774 80.1539 97.3149 78.8544 97.4504 79.1356C97.4609 79.1589 97.668 79.7426 97.7152 79.811C97.8699 80.0296 98.6389 81.3977 98.6708 81.4009C98.7926 81.4132 98.4678 80.437 98.5002 80.323C98.5423 80.1713 98.8625 81.0427 98.8986 80.8894C98.916 80.8192 98.5471 79.6538 98.6641 79.7959C98.7327 79.8787 99.0518 80.7837 99.1049 80.8471C99.2947 81.0757 99.17 80.4781 99.6647 81.6299C98.6932 78.7361 99.4686 80.8486 99.5861 81.0515C100.066 81.8803 99.8685 80.5851 100.11 80.7973C100.864 81.4669 101.865 83.1195 102.449 83.376C102.544 83.4175 102.092 81.953 102.2 82.0198C102.249 82.0512 102.624 83.0962 102.686 83.0932C102.737 83.0937 102.632 82.5352 102.691 82.5203C102.706 82.5154 103.023 83.5064 103.048 83.5069C103.237 83.5102 103.18 82.7532 103.202 82.2135C103.21 82.0128 103.663 83.3157 102.934 81.0299C103.135 81.5838 103.313 82.0654 103.509 82.6123C103.146 81.1411 103.69 82.6225 103.695 82.2154C103.694 82.1674 103.293 80.5548 103.7 81.6819C103.45 80.8644 103.227 80.1738 102.999 79.434C102.954 79.1059 103.326 80.0241 103.391 80.1099C103.456 80.1953 103.151 79.1273 103.158 79.1137C103.19 79.0742 103.612 80.4724 103.622 80.4946C104.221 81.7741 103.971 81.0372 103.44 78.9092C103.306 78.3724 103.969 79.8471 103.502 78.1816C103.71 78.8556 103.881 79.4525 104.075 80.0972C104.186 80.2531 104.299 80.4135 104.41 80.5694C104.199 79.9252 103.986 79.2811 103.776 78.6327C104.066 79.1595 103.699 77.6023 103.812 77.6222C103.878 77.636 104.306 79.0702 104.244 78.7477C104.232 78.6838 103.926 77.7195 103.922 77.6361C103.886 76.9598 104.265 77.9616 104.478 78.1076C104.579 78.1778 104.111 76.3988 104.565 77.5252C104.608 77.6307 105.182 79.1625 104.57 76.9042C104.803 77.6047 104.933 77.9705 105.127 78.5607C104.253 75.1973 105.2 78.4662 105.606 79.1865C105.816 79.5609 105.943 78.8875 105.934 78.5028C105.927 78.2688 105.534 76.9619 105.528 76.9065C105.5 76.5865 105.88 77.8536 105.875 77.6282C105.87 77.4023 105.513 75.9471 105.611 76.0607C105.687 76.1483 106.124 77.7334 106.026 77.1649C106.004 77.0421 105.564 75.7178 105.792 76.2208C105.827 76.2985 106.373 77.7099 106.49 78.0159C106.682 78.872 106.839 80.0172 106.876 80.3765C107.511 86.585 105.384 87.2954 104.057 86.9137C103.934 86.8808 103.429 85.5349 103.323 85.4376C103.217 85.3402 103.677 86.5743 103.583 86.4902C103.488 86.4021 103.159 85.533 103.077 85.4747C102.524 85.077 101.955 84.653 101.494 84.5395C101.375 84.5115 101.638 85.5511 101.55 85.5809C101.515 85.5919 101.072 84.2866 101.051 84.3065C100.818 84.5007 101.007 85.8388 100.696 85.7764C100.566 85.7489 100.064 84.6943 99.9198 84.6299C99.7998 84.574 99.9745 85.3548 99.9016 85.3983C99.8631 85.4249 99.4858 84.4447 99.4421 84.3726C99.2947 84.1341 99.7479 85.3341 99.7204 85.344C99.6434 85.3672 99.0785 83.9248 99.0472 84.0648C99.0354 84.1206 99.3759 85.0467 99.3881 85.206C99.403 85.4065 99.1103 84.5443 99.062 84.5271C99.0584 84.5241 99.3075 85.1843 99.2978 85.2181C99.2357 85.4383 99.2739 86.0171 99.1383 86.0159C98.8602 86.016 98.1356 84.8367 97.8059 84.6783C97.7239 84.6406 98.0702 85.493 98.0678 85.5415C98.0551 85.7709 97.6255 84.7573 97.6752 85.1621C97.6828 85.2286 98.0845 86.4389 97.9086 86.1613C97.8137 86.012 97.4869 85.2869 97.3914 85.1251C97.2959 84.9634 97.7207 86.0533 97.6887 86.0668C97.6313 86.0939 97.3499 85.3332 97.3183 85.5019C97.3064 85.5593 97.5274 86.3727 97.5113 86.5613C97.5088 86.5905 97.5005 86.6048 97.4846 86.599C97.2925 86.5284 96.7331 85.6627 96.5556 85.7183C96.4937 85.7351 96.8781 86.8768 96.7942 86.9248C96.6917 86.9847 96.385 86.8169 96.2664 86.8496C96.2061 86.8663 95.7101 85.709 95.6827 85.6637C95.5011 85.3603 96.0691 86.6474 96.0179 86.6089C95.9475 86.5556 95.5024 85.6173 95.4379 85.5703C95.3967 85.5402 95.8007 86.495 95.7988 86.5046C95.7453 86.9004 95.5412 86.8832 95.3994 87.0684C94.6317 88.0557 94.2129 89.7161 92.9913 89.6435C92.8894 89.6394 92.3114 88.467 92.3301 88.6869C92.3462 88.9036 93.5278 91.4687 92.0883 88.7025C92.3653 89.2675 92.5643 89.6695 92.8163 90.1837C92.2779 89.4604 92.5389 90.3563 92.4503 90.5272C92.3835 90.6556 92.2483 90.6116 92.1203 90.5998C92.0064 90.5851 91.5141 89.6056 92.0929 90.9166C91.3203 90.3063 91.0595 90.6888 89.9994 89.5692C91.0267 91.6773 90.2504 90.4186 89.9692 90.1769C89.9343 90.146 90.3586 90.8885 90.2833 90.8469C90.1903 90.796 89.5332 89.6665 89.48 89.7784C89.4655 89.8093 89.9996 91.1692 89.5782 90.5549C89.1536 89.9423 88.8481 89.6147 88.4324 89.0346C88.7191 89.5164 88.9954 89.9761 89.2781 90.4509C89.2953 90.5525 89.3087 90.6522 89.3259 90.7539C88.987 90.1718 88.6476 89.5893 88.3065 89.0039C88.606 89.5713 88.9027 90.1312 89.2084 90.7044C87.4439 87.7278 88.0466 88.6829 88.3939 89.493C88.5674 89.8959 88.2284 89.3937 88.3607 89.7227C88.3739 89.7552 88.42 89.8428 88.4813 89.956C88.6478 90.2643 88.9274 90.7616 88.963 90.8512C89.0801 91.1472 88.3939 89.9239 88.3708 89.9461C88.3488 89.9732 89.0981 91.3194 88.7016 90.7575C87.3487 88.3672 87.6543 89.228 88.7508 91.0582C88.7368 91.0712 88.6783 91.003 88.6913 91.0656C85.9221 86.4432 87.8045 89.7736 88.1606 90.421C88.5127 91.0695 87.7571 89.8346 87.7783 89.8879C87.8373 90.0363 88.1692 90.538 88.164 90.565C88.1255 90.7308 87.5622 90.0408 87.4164 90.0384C87.396 90.0379 87.85 90.7186 87.7908 90.6612C87.7315 90.6034 87.2753 89.9284 87.2806 89.9923C87.2817 90.0086 87.6707 90.6129 87.6614 90.6198C87.4438 90.7227 86.9207 90.3386 86.6904 90.3921C86.6693 90.3975 87.416 91.4345 87.3657 91.4169C87.3159 91.3987 86.5813 90.5083 86.4911 90.4654C86.4671 90.4533 87.1165 91.2967 87.0892 91.2821C86.9968 91.2312 86.4277 90.5764 86.2985 90.4994C86.0787 90.3718 86.4396 90.9169 85.9629 90.499C85.8731 90.4223 85.2859 89.7564 85.098 89.5889C84.7721 89.3015 85.6533 90.2501 85.763 90.3847C86.1196 90.8175 84.9524 89.5534 85.2276 89.9016C85.2706 89.955 85.9672 90.7006 85.9752 90.715C86.0569 90.8812 84.4128 89.1445 85.2391 90.1285C84.2372 89.1841 84.0022 88.7608 83.5142 88.2178C82.3273 86.8984 80.8175 85.4561 80.2964 85.0281C79.85 84.6574 80.6176 85.452 80.6008 85.469C80.5098 85.5626 80.528 85.8404 80.0938 85.5333C79.8324 85.3497 79.5783 84.9532 79.3019 84.7163C79.0255 84.48 79.5993 85.0802 78.9378 84.4587C78.276 83.8372 76.3473 81.9892 75.4538 81.0803ZM88.5977 79.6223C90.3215 83.6262 89.7212 83.4125 89.3095 83.1531C88.9733 82.9325 87.3063 80.0141 89.522 84.3441C89.7336 84.2743 89.6773 83.7577 89.9541 83.7881C89.9831 83.7918 90.3116 84.1335 90.3923 84.184C90.4374 84.2116 90.7898 84.9336 90.8203 84.9098C90.8258 84.9026 90.4087 83.9383 90.4365 83.9562C90.53 84.0141 91.3858 85.3903 91.386 85.3386C91.3856 85.1867 90.8221 84.072 90.7499 83.8551C90.5135 83.1365 91.333 84.8236 91.1568 84.2328C91.1253 84.1272 90.4739 82.6271 90.6313 82.789C90.696 82.8566 91.1025 83.5977 91.1052 83.5518C91.1216 83.303 90.769 82.2337 90.9504 82.3536C91.0993 82.4534 91.6108 83.607 91.7261 83.7401C91.8388 83.8694 91.2738 82.5184 91.2686 82.4275C91.2612 82.2846 91.6692 83.0113 91.6789 82.9934C91.868 82.6349 91.7318 81.638 91.8798 81.1911C91.4467 80.7535 91.0304 80.3612 90.5824 79.91C91.0152 81.1491 90.5602 80.0098 90.3155 79.674C90.1215 79.4082 91.0347 81.4244 90.8561 81.2368C90.8561 81.2368 90.8562 81.2368 90.8563 81.2368C90.7634 81.1375 90.0319 79.7872 90.2181 80.4079C90.2254 80.4315 90.7034 81.4759 90.6581 81.5416C90.555 81.6876 90.5942 82.3205 90.3333 82.1724C90.2565 82.1285 89.7476 81.0346 89.6286 80.9259C89.5416 80.8478 89.9759 81.8766 89.8062 81.6812C89.5912 81.4309 88.7206 79.7205 89.8235 82.1482C89.4061 81.2928 89.0056 80.4554 88.5977 79.6223ZM85.3561 83.927C85.2955 83.8403 83.6619 81.3473 85.2944 84.0739C86.17 85.1609 86.0335 84.4508 86.6076 85.0173C85.0103 82.3107 85.4904 83.461 85.4654 83.7396C85.4654 83.7396 85.4653 83.7396 85.4652 83.7397C85.4638 83.7528 85.0863 83.0229 85.1217 83.1739C85.1388 83.2476 85.6906 84.3814 85.3561 83.927Z" fill="white"/>
</svg>
