<svg width="144" height="120" viewBox="0 0 144 120" fill="none" xmlns="http://www.w3.org/2000/svg">
<path d="M26.2012 5.52994C27.0462 3.48878 26.0765 1.14911 24.0353 0.304153C21.9941 -0.540809 19.6545 0.428901 18.8095 2.47006L22.5054 4L26.2012 5.52994ZM143.617 91.3825L101.156 73.206L106.645 119.067L143.617 91.3825ZM93.0202 97.4386L92.5448 93.467L93.0202 97.4386ZM31.3923 55.8779L30.3318 52.0211L31.3923 55.8779ZM43.8197 67.6245L39.9093 66.7827L43.8197 67.6245ZM22.5054 4L18.8095 2.47006L1.25229 44.8828L4.94813 46.4127L8.64398 47.9427L26.2012 5.52994L22.5054 4ZM16.8391 59.8797L17.8996 63.7365L32.4528 59.7348L31.3923 55.8779L30.3318 52.0211L15.7785 56.0229L16.8391 59.8797ZM43.8197 67.6245L39.9093 66.7827L37.6578 77.2416L41.5682 78.0834L45.4787 78.9252L47.7301 68.4663L43.8197 67.6245ZM57.8308 87.7987L60.4255 90.843L73.7842 79.4576L71.1896 76.4132L68.595 73.3689L55.2362 84.7543L57.8308 87.7987ZM93.0202 97.4386L93.4955 101.41L108.347 99.6326L107.872 95.661L107.396 91.6893L92.5448 93.467L93.0202 97.4386ZM84.316 85.9584L80.6202 84.4284C77.0099 93.1497 84.1235 102.532 93.4955 101.41L93.0202 97.4386L92.5448 93.467C89.2452 93.8619 86.7408 90.5587 88.0119 87.4883L84.316 85.9584ZM71.1896 76.4132L73.7842 79.4576C77.2594 76.4957 82.3666 80.2096 80.6202 84.4284L84.316 85.9584L88.0119 87.4883C92.9725 75.5049 78.4659 64.9561 68.595 73.3689L71.1896 76.4132ZM41.5682 78.0834L37.6578 77.2416C34.8405 90.3291 50.2366 99.5267 60.4255 90.843L57.8308 87.7987L55.2362 84.7543C50.8696 88.4759 44.2712 84.5341 45.4787 78.9252L41.5682 78.0834ZM31.3923 55.8779L32.4528 59.7348C36.7959 58.5406 40.8572 62.3794 39.9093 66.7827L43.8197 67.6245L47.7301 68.4663C49.9419 58.1918 40.4656 49.2346 30.3318 52.0211L31.3923 55.8779ZM4.94813 46.4127L1.25229 44.8828C-3.20315 55.6457 6.66781 66.825 17.8996 63.7365L16.8391 59.8797L15.7785 56.0229C10.9649 57.3465 6.7345 52.5553 8.64398 47.9427L4.94813 46.4127Z" fill="white"/>
</svg>
