<svg width="75" height="71" viewBox="0 0 75 71" fill="none" xmlns="http://www.w3.org/2000/svg">
<path d="M19.5732 50.7824C21.7159 53.1867 24.3315 55.1232 27.2568 56.4699C30.1823 57.8167 33.3543 58.5451 36.5742 58.6096C39.7941 58.6741 42.9927 58.0726 45.9697 56.844C48.9467 55.6154 51.6378 53.7856 53.875 51.469L62.373 59.675C59.0065 63.161 54.9563 65.9151 50.4766 67.7639C45.9968 69.6127 41.1832 70.5171 36.3379 70.4201C31.4927 70.3231 26.7195 69.2269 22.3174 67.2004C17.9152 65.1737 13.9783 62.2599 10.7539 58.6418L19.5732 50.7824ZM9.60352 25.6096C14.9075 25.6096 19.207 29.9101 19.207 35.2141C19.2068 40.5178 14.9073 44.8176 9.60352 44.8176C4.29978 44.8175 0.000240173 40.5178 0 35.2141C0 29.9102 4.29963 25.6097 9.60352 25.6096ZM65.3965 24.6955C70.7004 24.6956 75 28.9951 75 34.299C75 39.6029 70.7004 43.9025 65.3965 43.9026C60.0925 43.9026 55.793 39.603 55.793 34.299C55.793 28.9951 60.0925 24.6955 65.3965 24.6955ZM37.748 0.00705583C42.5933 0.10413 47.3665 1.20018 51.7686 3.22678C56.1708 5.25346 60.1077 8.16729 63.332 11.7854L54.5127 19.6448C52.37 17.2404 49.7536 15.304 46.8281 13.9573C43.9028 12.6106 40.7305 11.8821 37.5107 11.8176C34.291 11.7532 31.0921 12.3547 28.1152 13.5832C25.1384 14.8118 22.4471 16.6417 20.21 18.9582L11.7129 10.7522C15.0795 7.26606 19.1295 4.51213 23.6094 2.66331C28.0892 0.814524 32.9027 -0.0899664 37.748 0.00705583Z" fill="white"/>
</svg>
