<svg width="75" height="71" viewBox="0 0 75 71" fill="none" xmlns="http://www.w3.org/2000/svg">
<path d="M19.5732 50.7822C21.7159 53.1865 24.3315 55.123 27.2568 56.4697C30.1823 57.8165 33.3543 58.5449 36.5742 58.6094C39.7941 58.6738 42.9927 58.0724 45.9697 56.8438C48.9467 55.6151 51.6378 53.7853 53.875 51.4688L62.373 59.6748C59.0065 63.1608 54.9563 65.9148 50.4766 67.7637C45.9968 69.6125 41.1832 70.5169 36.3379 70.4199C31.4927 70.3229 26.7195 69.2267 22.3174 67.2002C17.9152 65.1735 13.9783 62.2597 10.7539 58.6416L19.5732 50.7822ZM9.60352 25.6094C14.9075 25.6094 19.207 29.9099 19.207 35.2139C19.2068 40.5176 14.9073 44.8174 9.60352 44.8174C4.29978 44.8173 0.000240173 40.5176 0 35.2139C0 29.91 4.29963 25.6095 9.60352 25.6094ZM65.3965 24.6953C70.7004 24.6954 75 28.9949 75 34.2988C75 39.6027 70.7004 43.9023 65.3965 43.9023C60.0925 43.9023 55.793 39.6028 55.793 34.2988C55.793 28.9949 60.0925 24.6953 65.3965 24.6953ZM37.748 0.00683594C42.5933 0.10391 47.3665 1.19996 51.7686 3.22656C56.1708 5.25324 60.1077 8.16707 63.332 11.7852L54.5127 19.6445C52.37 17.2402 49.7536 15.3038 46.8281 13.957C43.9028 12.6103 40.7305 11.8819 37.5107 11.8174C34.291 11.753 31.0921 12.3545 28.1152 13.583C25.1384 14.8116 22.4471 16.6415 20.21 18.958L11.7129 10.752C15.0795 7.26584 19.1295 4.51191 23.6094 2.66309C28.0892 0.814305 32.9027 -0.0901863 37.748 0.00683594Z" fill="black"/>
</svg>
